<svg xmlns="http://www.w3.org/2000/svg" xmlns:xlink="http://www.w3.org/1999/xlink" version="1.1" style="" xml:space="preserve" width="2900" height="1241.4"><rect id="backgroundrect" width="100%" height="100%" x="0" y="0" fill="none" stroke="none"/>









<g class="currentLayer" style=""><title>Layer 1</title><path d="M1408.6,162.9c-6.3-30.5-27.4-53.8-62.2-77.2c-27-18.2-63.3-32.1-91.9-31.7c-22.3,0.2-18.6,1.3-2.8,5.6  c5.9,1.9,21.1,9.8,28.5,14.7c3.7,2.5,10.3,8.2,14.5,12.7c7.5,8,18.2,22.3,18.2,24.4c0,1.7-1.5,1.3-3.6-1c-2.7-3-18.8-15.8-25.9-20.6  c-15.2-10.2-34.2-18-49.9-20.5c-9.9-1.5-26-2.1-35.8,0.5c-19.9,5.3-29.6,10.6-51.7,26.1c-21.8,15.3-31.5,19.3-49.1,22.2  c-8.6,1.5-11.2,1.5-20,0c-10.5-1.8-16.8-4.2-24.1-9.5c-5.3-3.8-11.6-10.5-11.6-7.8c0,8.8,16.8,27.3,28.2,34.2  c10.3,6.2,14.8,8.3,27.2,8.8c10.4,0.4,14.9-0.9,26.1-4.1c6.5-1.8-1.9,8.9-10.1,12.9c-12.7,4.1-25.3,5.6-41.3-2.1  c-8.7-4.2-11.6-5.8-24.1-18.2c-15.2-15.1-23.1-21-32.5-23.9c-14.7-4.5-24.6-3.7-45.2,4.4c-19.8,7.8-27.5,10.9-37.2,12.1  c-11.2,1.4-21.8,0.8-29.4-3c-2.9-1.4-8.8-7.1-9.4-6.7c-1.8,1.2,1.4,7.4,4.4,12.2c6.1,9.6,14.2,14,27.1,14.6  c8.7,0.5,11.8-0.1,30.4-4.8c7.8-2,9.6-2.1,15.2-1.2c11.2,1.9,17.2,8.6,16.1,17.9c-0.7,6.1-5.1,10.6-13.2,13.5c-5,1.8-7.8,1.4-15.3,1  c-10.1-0.6-16.6-3.3-34-11.2c-30.8-13.9-43.2-15.3-61.7-6.4c-7.9,3.9-12.8,8.5-27.3,20.7c-18.1,15.3-33.2,21.8-50.4,21.8  c-8.2,0-16.2-3.3-16.2-2.1c0,2.9,38.3,25.7,52.4,31.1c10.8,4.2,19.3,5.4,33.3,4.8c21.9-0.9,34-7.2,50.3-26.2  c15.6-18.3,20.9-21.3,35-20.3c13,1,21.3,8,21.3,17.9c0,9-5.8,16.5-16.5,21.5c-5.6,2.6-6.9,2.8-18.8,2.8c-9.5,0-18.6-4.6-18.6-3.7  c0,3.6,27.4,19.8,40.9,23.3c6.1,1.6,11.4,2.1,19.4,2.1c18.1,0,30.2-4.1,52.7-17.4c25.6-15.3,41.3-19.5,55.9-15.2  c12,3.5,17.7,12.1,13.5,20.3c-2.6,5-7.7,8.5-17.8,11.9c-13,4.5-19.5,8.5-23.6,14.6c-2.3,3.5-6.3,12.2-5.5,13s4.9-6.3,6.1-7.2  c4.2-3,11.1-5.4,15.8-5.4c7-0.1,13.5,2.2,29.9,10.2c17.8,8.8,23.8,10.4,37.3,9.8c9.9-0.4,10.7-0.6,19.5-5.1  c6.6-3.4,12.4-7.5,20.7-14.8c28.1-24.6,44.3-33.1,63.5-33.1c8.6,0,19.4,3.2,20.3,6.1c0.3,1.1-0.1,1.2-1.9,0.6  c-1.3-0.4-6.1-2.1-10.3-2.4c-18.3-1.2-30.5,7.7-52.5,33.8c-17.8,21.1-26.8,28-39.6,30.4c-3.5,0.6-13.9-1.4-14-0.8s9,4.8,11.2,5.9  c7.2,3.3,17.8,4.3,28.2,2.6c8.7-1.4,18.9-6.8,27.5-14.7c15.3-13.9,20.7-16.8,30.9-16.8c6.5,0,11.7,1.4,24,6.2  c10.6,4.1,28.9,8.4,39.9,9.2c24.8,1.9,41.2-2.2,60.6-14.9c23.8-15.6,39.5-36.5,48.4-71.4C1411.2,186.5,1411.1,174.9,1408.6,162.9z   M1386.2,157.8c-5.4-8.7-15.9-14.1-16.6-12.9c-0.9,1.5,3.4,6.6,5.6,13.6c6.4,20.6-10.9,49.6-33.6,62.5c-11.8,6.7-21.8,7.2-21.6,8  c0.3,1.4,24.5,1.6,42.7-11.7c7.5-5.5,17.8-17.3,22-25.1c7-13.3,6.5-3.1-0.5,12.6c-9.1,20.5-27.5,30.4-30.3,31.9  c-19.3,10.2-37.6,7.9-45.5,6.9c-10.7-1.3-24.2-5.2-24-6.6c0.1-0.4,1.1-0.4,2.6-0.7c6.9-1.2,14-5,13.8-6.8  c-0.3-1.7-17.4-1.7-32.8-12.3c-13.7-9.5-23.8-21.3-32.2-31.4c-15.8-19-25.7-30-36.9-33.3c-3.2-0.9-11.8-3.3-11.9-3.9  c0-1.6,7-3.4,13.3-3.4c15.1,0,27.4,5.6,43.7,20c9.1,8.1,28.9,20.8,35,24.3c9.1,4-5.7-6.5-16.5-16.8c-13-14.1-13.6-16.6-0.7-6.1  c21.8,17.8,34.1,23.7,51,22.9c8.9-0.4,11-1.9,13.6-4.2c5.3-5.2,7.2-11.3,3.9-17.8c-3.6-7.1-8.7-10.8-18.9-10.4  c-6.7,0.2-9.6,2.2-12.2,4.1c-1.7,1.3-3.4,2.1-3.8,1.7s-0.1-2.9,0.6-5.7c0.6-2.8,5.2-8.7,5.2-9.1c0-0.4-11.1,1.9-18.2,2  c-14.7,0-17.7-1.4-23.5-5.7l-3.9-3.1l5,0.8c10,1.7,14.7,0.8,26.8-5c22.5-10.8,30.5-12.5,48.5-10.5c10.1,1.1,17.1,5,17.4,4.6  s-3.4-4.6-4.8-6.1l-6-3.9l8,0.6c6.2,0.5,9.7,1.4,15.5,4.2c14.1,6.7,21.4,16.5,24.6,33.2C1391.1,165.3,1389.4,162.8,1386.2,157.8z" id="svg_1" class="" fill-opacity="1" fill="#ffffff"/><g id="Y" class="" fill-opacity="1" fill="#ffffff">
	<path d="M2393.5,1080.4c44.5-5,90.4-24.4,132.7-56.2c30.1-22.6,60.6-53.5,90.6-91.7c5.8-7.4,34.7-44.1,64.2-81.5   c127-161.2,178.4-227.1,185.6-238.1c11.1-17,17.8-31.7,22-48.2c3.9-15.5,2.8-25.2-4.6-38.9c-5.8-10.8-11.2-17.7-22.9-29.3   c-16.5-16.4-31-24.8-44.1-25.7c-3.6-0.2-7-0.1-7.6,0.4s-5.7,7-11.2,14.5c-17.1,23.1-25.2,36.7-22.9,38.5c0.7,0.5,4.9,2.9,9.4,5.2   c9.8,5.1,25.4,17.8,33.6,27.5c15.4,18.2,17.3,32.7,7.3,56.4c-4.2,10-13.7,25.9-22.3,37.6c-16.5,22.4-60.6,77.4-62.4,78   c-1.1,0.4-2.5,0.2-3-0.3c-2.5-2.5-30.1-123.2-36.3-159.3c-2.9-16.5-19.2-94.6-20-96c-2.2-3.6-15.7,1.5-53,20.1   c-30.2,15-41.8,22-42.3,25.7c-0.4,2.7,1,3.1,13.3,3.5c10.4,0.4,15.8,2.5,19.1,7.4c4.2,6.3,17.2,52.8,37.9,135.4   c14.7,58.7,20.2,81.8,24.7,104.4l3,14.9l-2.7,5.1c-4.7,9.1-24.2,38.5-33.9,52.1c-19.4,27.2-36,47.2-74.7,89.4   c-30.7,33.5-46.3,49.3-67.8,65.7c-31.4,23.9-70.6,42.5-108,50.8c-39.8,8.8-84.1,9.2-140.3,1.3c-9.4-1.3-36.1-8-36.8-6.3   c-0.7,1.6,65.4,24.2,84.5,29.3c13.6,3.6,30.2,6.8,41.7,8C2358.1,1081.5,2382.9,1081.6,2393.5,1080.4L2393.5,1080.4z" id="svg_2" fill="#ffffff"/>
</g><g id="svg_3" class="" fill-opacity="1" fill="#ffffff">
	<path d="M2446.4,808.7c12.7-7.7,42.3-30.8,53.5-41.6c7.6-7.4,9.9-10,8.5-12.7c-1.7-3-5-2.4-14-3.1c-15.7-1.2-24-10.4-28.1-29.4   c-1.4-6.6-1-33.8,1.2-47.6c0.9-5.8,15.1-87.2,31.6-180.8s29.8-171,29.5-171.8s-1.9-1.4-3.7-1.4c-5.8,0-79.3,13.2-81.7,14.7   c-1.3,0.8-2.6,2.1-2.9,2.9s1.5,6.1,4,11.7c7,15.7,8,20.3,7.4,32.6c-0.3,5.8-1.5,15.8-2.6,22.1c-5.1,27.6-9.5,52.4-16.6,94.5   c-4.2,24.8-8.3,47.9-9.1,51.5c-3.5,15.2-33.5,189.5-34.1,197.6c-1.3,17.9,2,24.6,22.5,45.4c13.3,13.5,20.6,19,25.4,19   C2438.9,812.4,2443,810.7,2446.4,808.7z" id="svg_4" fill="#ffffff"/>
</g><g id="svg_5" class="" fill-opacity="1" fill="#ffffff">
	<path d="M2361.3,726.3c4.7-4.1,4.6-2,4.6-106.6s0.1-102.5-4.6-106.6c-2.4-2.1-183.4-105.5-189.2-108.1c-2.8-1.3-5.3-1.7-7.2-1.3   c-3,0.7-188.9,106.4-192.4,109.3c-4.7,4.1-4.6,2-4.6,106.7s-0.1,102.5,4.6,106.7c2.2,1.9,182.9,105.2,188.9,108c5,2.2,6,2.2,11-0.1   C2178.3,831.6,2359.1,728.3,2361.3,726.3z M2180.7,801.4c-1.6,0-1.7-2.1-1.7-26.9c0-17.2,0.4-27.2,1-27.6   c1.7-1.1,113.4-11.4,114.3-10.6C2295.2,737.2,2183.2,801.4,2180.7,801.4z M2332.1,706.7c-0.5,0.5-30.8,3.8-67.3,7.3   s-68,6.6-70.1,6.8c-2,0.2-4,0-4.3-0.5s16-31.1,36.2-67.9c25.6-46.5,37.3-66.9,38.3-66.7C2267,586.1,2333.3,705.4,2332.1,706.7z    M2342,603.8c0,38.1-0.4,62.7-0.9,63c-0.6,0.4-2.1-1.3-3.5-3.6c-1.4-2.4-14.2-25.4-28.6-51.2c-21-37.7-25.9-47.2-24.8-48.2   c1.6-1.6,53.7-22.4,56-22.4C2341.9,541.4,2342,544.8,2342,603.8z M2211.1,455.5c0.9,0,103,57.8,110.8,62.7c2,1.3,2.1,1.7,1,2.8   c-1.1,1-51.8,21.5-53.2,21.5c-0.3-0.1-0.9-0.7-1.4-1.3c-2.5-3.2-58.3-84.7-58.3-85.2C2210,455.7,2210.5,455.5,2211.1,455.5z    M2166.9,438.3c0.5,0,11.3,15.2,24.1,33.8s28.9,41.9,35.7,51.8c6.8,9.9,12.7,18.8,12.9,19.8c0.4,1.7-3.5,1.8-72.8,1.8   s-73-0.2-72.6-1.8c0.3-1,6.1-9.9,12.9-19.8c6.9-9.9,22.9-33.2,35.7-51.8S2166.4,438.3,2166.9,438.3z M2012.1,518.1   c7.5-4.8,109.9-62.7,110.8-62.7c0.6,0,1.1,0.3,1.1,0.6s-10,15.1-22.2,32.8c-12.2,17.7-25.5,37-29.6,42.9s-7.7,10.7-8.1,10.7   c-0.3,0-12.2-4.7-26.3-10.3c-14.1-5.6-26.2-10.7-26.9-11.4C2010,519.8,2010.3,519.2,2012.1,518.1z M1992.7,666.8   c-0.4-0.4-0.7-28.7-0.7-63c0-58.9,0.1-62.3,1.8-62.3c2.3,0,54.4,20.8,56,22.4c1,1-4.5,11.5-26.8,51.7   c-15.4,27.8-28.4,50.8-28.8,51.2S1993.1,667.1,1992.7,666.8z M2069.1,585.6c1-0.2,12.6,20,38.3,66.6c20.2,36.8,36.8,67.1,36.8,67.5   c-0.2,1.3-12.5,0.4-76.5-5.8c-35.7-3.5-65.3-6.7-65.8-7.3C2000.7,705.4,2066.9,586,2069.1,585.6z M2153.2,801.4   c-0.9,0-27-14.5-58-32.2s-55.9-32.5-55.5-32.9c0.9-0.9,112.3,9.4,114.1,10.5c0.8,0.5,1.2,8.4,1.2,27.7   C2155,799.5,2154.9,801.4,2153.2,801.4z M2154.2,686.7c-52.7-95.6-63.1-114.9-62.8-115.8c0.5-1.4,150.9-1.4,151.3,0   c0.4,1.3-74.1,136.8-75.5,137.3C2166.6,708.4,2160.8,698.7,2154.2,686.7z" id="svg_6" fill="#ffffff"/>
	<path d="M2175.5,582.3c-1.2-1-3.8,0.3-14.1,6.7c-13.2,8.2-15.6,10.4-13.7,12.4c0.9,0.9,2.5,0.5,6.7-1.4c4.1-1.9,5.8-2.2,6.3-1.4   c0.4,0.7,0.9,14.5,1.1,30.7c0.3,33.3,0.1,32.5,7.5,30.8c2.3-0.4,4.8-1.4,5.6-2.2C2177,655.8,2177.6,584.1,2175.5,582.3z" id="svg_7" fill="#ffffff"/>
</g><g id="svg_8" class="" fill-opacity="1" fill="#ffffff">
	<path d="M1649.5,815.4c17.3-2.8,22.1-2.8,33.1-0.4c5.8,1.2,11.5,2,12.7,1.7c3-0.8,6.6-3.2,7.6-5.2c1.4-2.6,12.7-68.2,16-93.1   c5.6-41.7,7.1-50.2,28.1-161.5c17.2-90.8,21.3-114.2,22.5-128.5c3-34.3,10.2-52.6,23.4-59.4l5.5-2.8l15.5,0.5   c32.6,1.2,55.2,7.6,68.3,19.6c7.1,6.5,11.3,13.1,14.5,22.8c7.9,24.2,0.7,74.9-15,105.7c-3.2,6.4-6.1,10.1-14.1,18   c-5.5,5.5-12.6,11.5-15.8,13.3c-12.9,7.6-31.9,14.1-72.8,25.2c-21.3,5.8-22.6,6.6-21.3,13c0.4,2.1,1.5,3.4,3.2,4.1   c5.4,2.1,22.8,0.9,46.1-3.2c48.7-8.6,91.8-28.8,119.1-55.9c19.9-19.8,29.8-39.2,35.1-68.9c1.9-10.6,2.2-16.1,2.2-34.6   c0-20.6-0.2-22.6-2.7-31.9c-4.8-17.9-14-31.7-26.9-40.2c-14.2-9.5-28.9-13.3-53.4-14.1c-15.6-0.5-52.3,0.8-75.5,2.8   c-6.3,0.5-28.8,2.1-50,3.5c-39.3,2.6-42,2.8-50.3,4.6c-6.1,1.3-6.9,2.9-5.2,9.6c2.6,10,3.5,20.4,3.5,41.5c0,37.6-5.5,86-17.6,154.7   c-4.4,25.2-39.7,201.4-42.5,212.4c-1.1,4.4-3.6,16.5-5.4,27c-3.1,17.3-3.3,19.2-1.8,20.2c0.9,0.7,2.8,1,4.2,0.8   C1641.3,816.7,1645.7,816,1649.5,815.4L1649.5,815.4z" id="svg_9" fill="#ffffff"/>
</g><path d="M1479.8,765.4c-19.5-20.5-36.7-43-80.9-105.6c-39.8-56.5-60.8-89.8-59.2-94c0.8-2,8.8-6.6,35.7-20.4  c25-12.8,35.9-19.2,47.2-27.6c10.9-8.2,25.3-22.7,29.8-30.2c4.9-8.2,9.3-20.2,11.1-30.9c1.8-10.1,2-33.7,0.4-44.9  c-3.9-28.3-19.6-56.1-41.3-73.3c-13.4-10.6-26.2-17-43.8-21.7c-10.2-2.7-10.8-2.8-46.8-3.2c-20.3-0.2-45.4,0.1-56.5,0.7  c-53.5,3-107.3,7.9-122.8,11.2c-6.3,1.3-6.7,3.3-2.8,13.1c10.1,25.3,15.3,63.5,18.2,134.8c1.2,30.8,0.6,149.4-1.1,206  c-0.5,17.3-1.3,54.7-1.6,83c-0.6,47.3-0.6,51.6,1,52.9c1.4,1.2,6.4,1.2,31.4,0.2c16.4-0.6,32.2-1.3,35.2-1.4l5.5-0.2l0.5-122.8  c0.5-120.1,0.5-122.9,2.4-124.3c1.1-0.8,2.4-1.4,3.1-1.4c4.3,0,23.8,28,104.9,150c49,73.7,67.9,100.4,76.6,108.3  c2.3,2,4.3,3.7,4.5,3.7s7-2.9,15.2-6.6c8.2-3.6,24.2-11.1,35.6-16.7c17.8-8.7,20.8-10.4,20.8-12.4  C1502.1,789.3,1498.4,784.9,1479.8,765.4z M1276.4,551.7c-15.4,2.5-33,1.3-33,1.3s-2.2-14.6-2.7-22.9c-0.3-7.7,0.6-83.2,1.8-108.9  c1.9-38.2,5.4-74.5,7.8-78.8c1.7-3.3,6.3-4.1,26.8-4.8c32.8-1.1,43,1.4,63.7,15.2c29.5,19.7,45.6,44.3,51.3,78.3  c2.5,15.1,1.7,41.4-1.6,52.8c-7.3,25.4-23.5,42.3-50.7,53.1C1328.8,541.5,1300.4,547.8,1276.4,551.7z" id="svg_10" class="" fill-opacity="1" fill="#ffffff"/><path d="M1069.1,509c-6.6-77.5-35.6-131.7-88.8-166c-9.6-6.2-31.1-16.5-44.2-21.1c-19.1-6.8-41.5-11.7-68.5-15.2  c-16.1-2-128.5-3-159-1.3c-46.5,2.5-89.1,9.5-96.6,15.8c-3.1,2.7-3.8,6.3-1.4,8.2c6.7,5.6,14.1,29.5,18.5,59.5  c10.1,69.9,10.4,167.9,1.5,381.9c-0.9,20.8-1.3,38.9-1,40.2c1.2,4.9,4.6,5.2,65.6,6.5c31.1,0.7,65,1.5,75.5,2  c22.8,0.9,43.9,0.3,59.3-1.7c66.6-8.5,124.9-38.9,170.1-88.6c36.6-40.3,58.7-86.4,67-139.4C1069.8,572.1,1070.9,530.1,1069.1,509z   M979.4,650.4c-15.9,65.6-67.1,113.7-135.9,127.5c-6.6,1.3-16.4,2.9-21.7,3.5c-9,0.9-36.4,1.2-43.3,0.3c-49.5-6-68-9.9-69.9-14.8  c-1.4-3.5-0.6-235.9,0.9-281c0.8-24.2,1.5-66.1,1.5-93.2v-49.2l2.3-2.5c9-10.2,78-9.7,121.2,0.9c17.7,4.3,28.4,8.3,45,16.5  c19.2,9.5,30.2,17.4,44.5,31.9c21.5,21.8,36.1,47.8,46.5,82.8c10.1,34.3,14.6,69.9,14.6,117.6C985.1,619.2,983.9,631.6,979.4,650.4z  " id="svg_11" class="" fill-opacity="1" fill="#ffffff"/><path d="M525.4,116c1.4,2.8,3.2,6.4,6.5,9.9c0.8,0.9,2.9,3,8.7,6.8c9,5.8,18.1,10.4,19.9,10.4c1.8,0,10.5,4.4,10.2,5.2  c-0.2,0.5-4.8,1.7-9.6,3.3c-17.6,5.9-30.9,13.7-43.3,25c-15.1,13.7-24.5,32.1-29.5,54.3c-0.5,2.2-14.7,15.1-20.8,22.8  c-10.5,13.4-21.2,32.9-21.2,32.9s10.2-9.7,21.3-19.5c6.8-6,12.2-11,12.7-11c1.2,0,0.2,4.4-2.5,13.3l-2.6,8.5l-21.5,11  c-48.2,24.6-72,44.4-88.4,69.2c-3.8,5.8-7.6,12-8.3,13.8c-2.3,5.5-3.8,4-4.6-4.4c-2.2-23.3,6.2-50.3,25.8-82.8  c11.9-19.7,33.6-47.3,53.2-67.4c20-20.6,34.1-29.8,43.9-29.8c5.5,0,8.5-2.2,11.4-7.7c1.9-3.7,3.2-3.6,3.5-15.9  c0.1-5.4-1.9-8.5-1.9-8.8c-0.1-0.7,4.5-4.1-1.2-10.5c-3.6-4.1-12.3-6-44.5-10.1c-19.7-2.5-66.1-1.6-83.1,0.9  c-68,10-134.5,42.3-192.5,93.2c-80.8,71-139.7,184.9-154.4,298.7c-2.9,22.4-3.9,43.7-3.3,70.3c0.7,28.3,1.4,36.7,5.3,64  c2.2,15,6.2,40,7.3,40c1.1,0,0.6-26.2,1.3-41.3c5.7-119.3,28.2-200.5,80.5-283c19.5-30.7,39.2-55.2,67.2-83.3  c27.9-28,47.3-43.5,75.2-60.1c13.3-7.9,30.7-16.3,31.6-15.3c0.4,0.4-2.3,3.2-5.9,6.2c-12.5,10.7-37.7,36.8-47.7,49.3  C175,336,149.5,398.7,142.3,475.7c-1.9,20.4-3.2,40.8-1.4,40.8c0.9,0,3.6-17.7,4.1-19.9c12.7-49.3,22.4-77.2,38.8-110.3  c13.1-26.3,27.5-49.5,45.5-71.2c12.4-15,40.8-43.9,55.4-55.5c14.2-11.3,32.7-24.1,33.6-23.2c0.3,0.3-2.9,5.2-7.2,10.9  c-26,34.3-45.6,76.5-53.4,115c-3.7,18.3-5.1,29.9-5.7,48.6c-0.5,15.5-0.4,35.3,0.8,35.3c1,0,3.7-22.2,6.8-36.3  c15.3-68.3,40-117.8,82.5-160.3c14.5-14.5,37.8-33.5,39.3-32.1c0.8,0.8,1.1,0.4-9,13.2c-21.4,27.1-34.7,51.5-41.7,76.2  c-5.4,19.1-7.1,32.1-7.8,60.7l-0.7,26l-3.8,5.7c-6.1,9.2-7,12.2-6.4,21.1c1,14.8,9.8,27.1,25.1,34.7c6.4,3.2,8.9,3.9,13.6,3.9  c6.7,0,15-2.2,18.4-5.4c2.4-2.2,2.6-1.7,3.1-19.7c0.5-19.7,0.3-25.4,5.7-38.4c5.6-13.3,20.9-28.8,43.5-43.8  c13.4-8.9,52.5-28.7,54.8-27.8c0.8,0.3,0.8,2.9,1.2,5.5l0,5.4L464.9,348c-16.4,17.6-25.1,37.3-25.1,37.3s11.8-11,25.1-22.9  c7-6.2,12.8-11.6,13.5-11.6c0.9,0,1.5,2.9,2,10.6l0.7,10.6l-3.1,4.2c-8.6,11.4-18.5,26.3-24.3,38c-12.4,24.7-15.9,51.1-15.9,51.1  s10.6-17.9,15.9-26.9c15.5-26.4,26.6-43.6,29-42.1c0.7,0.4,1.2,2.2,1.2,4s0.7,8.3,1.6,14.6l0.9,10.9l-1.6,2.8  c-7.1,9.4-15.5,23.8-21.8,34.8c-12.8,22.1-16.8,53.7-16.8,53.7s11.3-20.3,16.6-29.3c8.6-14.7,18-29.4,23.7-36.7  c3-3.8,3.5-1.8,4.6,10.5c0.5,6,1.2,11.9,1.5,13.2c0.3,1.5-5.1,12.4-10,21.8c-11,20.8-13.9,47.7-13.9,47.7s8.9-15.8,12.1-21.3  c9.9-17.2,12.5-22.2,13.4-21.2c1.1,1.1,4.2,73,8.5,194.4c0.9,25.3-0.8,35.6-9.1,53.6c-13.9,30.5-45.3,52.7-78,59.5  c-5.7,1.2-17.4,2.5-26.6,2.5c-21.5,0-36.8-3.6-55.6-13.2c-11.8-6.1-20.9-12.2-30-21.8c-12.2-12.8-18.5-22.7-25.2-42.2  c-6-17.5-7.5-25.4-6.8-54.4c0.4-16.3,1-25.8,1.7-26.5c1.6-1.6,4.3,2.2,10.5,14.6c2.9,5.9,5.6,12.8,6.2,13.1c1.7,1.1,15-14.2,20-22.1  c11.3-18.1,16.5-40.4,14.3-68.7c-0.6-7.6-1.3-17.6-0.9-21.1c0.8-6.1,4.2-14.8,8.5-21.7c2.2-3.5,8.4-9.6,7.9-10.1  c-0.7-0.7-10.4,3.6-15.5,5.9c-49.9,23.2-84,48.2-107.5,80c-6.6,8.9-18.2,30.7-20.1,37.7c-0.9,3.4-4,10.7-3.4,11.2  c0.7,0.5,6-4.9,8.2-6.8c13.6-11.9,35.5-25.4,37.2-22.7c0.3,0.4-0.7,3.3-2.1,6.4c-1.4,3.1-3.9,10.9-5.6,17.4  c-2.6,10-3.1,14.2-3.6,28.3c-1.2,38.7,5.3,66.8,21.7,93.5c27.5,44.8,72.3,73.6,125,80.4c10.6,1.5,34.8,1.3,45.7-0.3  c28-4,51.3-12.9,74.4-28.4c19.7-13.2,34.1-27.8,47.2-47.7c9.8-14.8,15.2-26.7,19.2-42.2c5.3-20.2,5.3-16.3,0.9-177.8  c-1.9-70-2-98.8-0.5-126c1.7-30.1,5.9-64.5,11.4-95.5c5.7-32,5.1-35.2-7.8-62.9c-6.9-14.8-9-20.6-8.9-29.7  c0.1-11.3,1.6-17.8,6.3-27.5c3.3-6.6,5.7-9.9,12.1-16.3c10.7-10.7,14.2-12.5,34.1-13.9c16.3-1.2,19.2-1.4,17.4,4.2  c-0.6,1.9,2.4,4.2,4.6,5.8c6.9,3.4-1.5,4.6-4.7,5c-0.4,0-0.4,0.5-0.1,0.7c1.9,0.9,7.3,2.8,16.6,2.1c7.2-0.9,14.8,0.9,21.2,4.9  c5.2,5.9,9.7,4.4,24.7,0.3c10.1-4.1,28.1-4.4,35.3-1.2c5.3,2.4,10.2,8.2,11.1,12.7c1.6,7.2,4.1,4.9,12.6-10.7  c2.4-4.9,4.3-9.6,4.4-12.8l0.9-5l-9.3-1.9c-8.3-1.2-12.2-1.8-19.3,0.4c-3.5,1.1-11.3,3.5-14.1,3.5c-5.8,0-12.6-2.8-13.6-5.4  c-1.2-3.1-0.8-10,1.3-16.8c1.8-5.8,2.1-7.1,7.4-12.3c8.2-8.1,14-9.7,25.4-8.2c4.3,0.6,12,1.1,17.2,1.7c5.2,0.6,14.4,2.1,20.3,3.3  l10.5,2.5l2.7-2.9c2.7-3.6,5.5-11.2,5.5-20.9l-0.3-8.1c0-0.8-0.7-1.8-1.5-1.8L781,140c-3.7,0-6.9,1.6-10.5,3.1  c-15.7,5.6-29.2,5.2-45.5-0.1c-12.5-4.1-20.9-5.4-44.4-7.3c-54.5-4.4-80.1-13.1-98.3-34.7c-9.3-11.1-12.4-21.9-12.4-39.3  c0-4.4-0.4-11.8-0.6-15.5c0-0.5-0.8-0.7-1-0.2c-1.3,3.3-3.9,9.7-5.1,13.2c-4.1,12.4-3.8,24.8,3.8,37.7c6.6,12.2,17,20.5,32.3,31.7  c7.9,5.8,14.4,11.2,14.4,11.9c0,2.7-8,1.8-26.2-1.2c-26.5-5.5-34.8-8.3-45.2-18.7c-8.8-8.8-12.6-19.7-14.5-36.9  c-0.6-5.4,0.4-19.5-0.1-19.5c-2.3-0.2-7.5,19.8-7.5,31.2c-0.1,2.7,0.1,6.5,1.3,11C522.7,110.7,524.2,113.7,525.4,116z M679.3,159.2  c-4.2-2.9-2.4-6,4.5-8c3.3-0.9,9,1.3,9.8,3.8C695.2,159.8,684.6,162.9,679.3,159.2z" id="svg_12" class="" fill-opacity="1" fill="#ffffff"/><g id="svg_13" class="" fill-opacity="1" fill="#ffffff">
	<path d="M93.2,1084.7c-1.3,3.7-1.5,6.9-0.6,9.5c0.9,2.6,2.5,4.6,4.6,6c2.1,1.4,4.3,2.1,6.5,2.1h2.5v2.8H50.4v-2.8h2.5   c4.3,0,8.7-1.3,13.2-4c4.5-2.7,8.3-7.2,11.3-13.5H93.2z M152.9,906.5l2.5,19.5l-69.8,178.2H69l71.2-169c2-4.6,3.8-8.6,5.1-12   c1.4-3.3,2.6-6.6,3.6-9.7c1-3.1,1.5-5.5,1.5-7H152.9z M192.1,1029.1v8.3h-87v-8.3H192.1z M152.9,906.5l82.3,196.8h-23.6   l-64.2-170.4L152.9,906.5z M204.6,1084.7h22.8c2.8,6.3,6.5,10.8,11.1,13.5c4.6,2.7,9.1,4,13.3,4h2.2v2.8h-62.6v-2.8h2.5   c3.5,0,6.7-1.5,9.5-4.6C206.3,1094.5,206.7,1090.2,204.6,1084.7z" id="svg_14" fill="#ffffff"/>
	<path d="M291.4,930.7h-0.8c-0.2-4.8-2-8.9-5.4-12.4c-3.4-3.4-7.6-5.1-12.4-5.1h-3.6v-2.8h22.2V930.7z M291.4,1084.7v20.3h-22.2   v-2.8h3.6c4.8,0,8.9-1.7,12.4-5.1c3.4-3.4,5.2-7.5,5.4-12.4H291.4z M308.6,910.4V1105h-18.1V910.4H308.6z M307.8,930.7v-20.3H330   v2.8c-0.2,0-1.4,0-3.6,0c-4.8,0-8.9,1.7-12.4,5.1c-3.4,3.4-5.2,7.6-5.4,12.4H307.8z M383.7,1096.3v8.6h-75.9v-8.6H383.7z    M400.6,1059.9l-16.1,45h-46.1l10-8.6c9.8,0,17.8-1.5,24-4.6c6.2-3.1,11.3-7.4,15.2-12.9c3.9-5.6,7.3-11.9,10.3-18.9H400.6z" id="svg_15" fill="#ffffff"/>
	<path d="M444.8,930.7H444c0-4.8-1.8-8.9-5.3-12.4c-3.5-3.4-7.7-5.1-12.5-5.1h-3.3l-0.3-2.8h22.2V930.7z M444.8,1084.7v20.3h-22.2   v-2.8h3.6c4.8,0,8.9-1.7,12.4-5.1c3.4-3.4,5.2-7.5,5.4-12.4H444.8z M462.1,910.4V1105H444V910.4H462.1z M537.1,910.4v8.6h-75.9   v-8.6H537.1z M525.2,1004.9v8.3h-63.9v-8.3H525.2z M537.1,1096.3v8.6h-75.9v-8.6H537.1z M554.1,1059.9l-16.1,45h-46.1l10-8.6   c9.8,0,17.8-1.5,24-4.6c6.2-3.1,11.3-7.4,15.2-12.9c3.9-5.6,7.3-11.9,10.3-18.9H554.1z M537.1,905.4v8.1l-33.9-3.1   c4.1,0,8.4-0.3,12.9-0.8c4.5-0.6,8.8-1.2,12.6-1.9C532.7,906.8,535.5,906.1,537.1,905.4z M525.2,987.1v18.3H509v-0.6   c3.7-0.2,6.9-1.6,9.5-4.3c2.6-2.7,3.9-5.9,3.9-9.6v-3.9H525.2z M525.2,1012.7v18.3h-2.8v-4.2c0-3.7-1.3-6.9-3.9-9.6   c-2.6-2.7-5.7-4-9.5-4v-0.6H525.2z M537.1,918.1v22.2h-2.8v-5c0-4.4-1.6-8.3-4.7-11.5c-3.2-3.2-7-5-11.7-5.1v-0.6H537.1z" id="svg_16" fill="#ffffff"/>
	<path d="M607.7,1084.7c-1.3,3.7-1.5,6.9-0.6,9.5c0.9,2.6,2.5,4.6,4.6,6c2.1,1.4,4.3,2.1,6.5,2.1h2.5v2.8h-55.9v-2.8h2.5   c4.3,0,8.7-1.3,13.2-4c4.5-2.7,8.3-7.2,11.3-13.5H607.7z M667.5,906.5l2.5,19.5l-69.8,178.2h-16.7l71.2-169c2-4.6,3.8-8.6,5.1-12   c1.4-3.3,2.6-6.6,3.6-9.7c1-3.1,1.5-5.5,1.5-7H667.5z M706.7,1029.1v8.3h-87v-8.3H706.7z M667.5,906.5l82.3,196.8h-23.6   l-64.2-170.4L667.5,906.5z M719.2,1084.7H742c2.8,6.3,6.5,10.8,11.1,13.5c4.6,2.7,9.1,4,13.3,4h2.2v2.8h-62.6v-2.8h2.5   c3.5,0,6.7-1.5,9.5-4.6C720.9,1094.5,721.3,1090.2,719.2,1084.7z" id="svg_17" fill="#ffffff"/>
	<path d="M894.1,910.4V1105c0,7.8-1.3,15.1-3.9,21.8c-2.6,6.8-6.2,12.6-10.8,17.7c-4.6,5-10,8.9-16.1,11.8   c-6.1,2.9-12.7,4.3-19.7,4.3v-2.5c6.1-2.2,11.6-6.1,16.5-11.5c4.9-5.5,8.8-11.9,11.7-19.3c2.9-7.4,4.3-15.1,4.3-23.1V910.4H894.1z    M876.8,930.7H876c-0.2-4.8-2-8.9-5.4-12.4c-3.4-3.4-7.6-5.1-12.4-5.1h-3.6v-2.8h22.2V930.7z M893.2,930.7v-20.3h22.2v2.8h-3.6   c-4.8,0-8.9,1.7-12.4,5.1c-3.4,3.4-5.2,7.6-5.4,12.4H893.2z" id="svg_18" fill="#ffffff"/>
	<path d="M969.4,1084.7c-1.3,3.7-1.5,6.9-0.6,9.5c0.9,2.6,2.5,4.6,4.6,6c2.1,1.4,4.3,2.1,6.5,2.1h2.5v2.8h-55.9v-2.8h2.5   c4.3,0,8.7-1.3,13.2-4c4.5-2.7,8.3-7.2,11.3-13.5H969.4z M1029.2,906.5l2.5,19.5l-69.8,178.2h-16.7l71.2-169c2-4.6,3.8-8.6,5.1-12   c1.4-3.3,2.6-6.6,3.6-9.7c1-3.1,1.5-5.5,1.5-7H1029.2z M1068.4,1029.1v8.3h-87v-8.3H1068.4z M1029.2,906.5l82.3,196.8h-23.6   l-64.2-170.4L1029.2,906.5z M1080.9,1084.7h22.8c2.8,6.3,6.5,10.8,11.1,13.5c4.6,2.7,9.1,4,13.3,4h2.2v2.8h-62.6v-2.8h2.5   c3.5,0,6.7-1.5,9.5-4.6C1082.6,1094.5,1082.9,1090.2,1080.9,1084.7z" id="svg_19" fill="#ffffff"/>
	<path d="M1316.4,1023.8l-3.3,43.6c-4.8,8-10.9,15.1-18.2,21.3c-7.3,6.2-15.9,11.1-25.9,14.7c-9.9,3.6-21.3,5.4-34.1,5.4   c-19.3-0.2-36.4-4.4-51.4-12.8c-15-8.3-26.7-20.1-35.2-35.2c-8.4-15.1-12.6-32.9-12.6-53.5c0-20.2,4.2-37.9,12.5-53   c8.3-15.1,20.1-26.9,35.2-35.3c15.1-8.4,32.8-12.6,53.2-12.6c13.7,0,26.1,1.8,37.1,5.4c11,3.6,20.6,8.1,28.8,13.5l5.6,39.2h-2.5   c-4.1-16.3-12.4-28.7-25-37.1c-12.6-8.4-27.2-12.6-43.9-12.6c-16.3,0-30.4,3.8-42.4,11.5c-12,7.7-21.2,18.4-27.8,32.2   c-6.6,13.8-9.9,30-9.9,48.5c0,18.5,3.3,34.8,9.9,48.7c6.6,13.9,15.8,24.7,27.5,32.5c11.8,7.8,25.4,11.9,41,12.2   c13.2,0,25.3-2.5,36.6-7.4c11.2-4.9,20.6-13,28.2-24.2c7.6-11.2,12.4-26.3,14.5-45.2H1316.4z" id="svg_20" fill="#ffffff"/>
	<path d="M1337.2,905.1c1.9,0.7,4.7,1.5,8.5,2.2c3.8,0.7,8,1.4,12.6,1.9c4.6,0.6,8.9,0.8,12.8,0.8l-33.9,3.1V905.1z M1498.2,910.1   v8.3h-161v-8.3H1498.2z M1356.4,917.6v0.8c-4.6,0.2-8.5,1.9-11.7,5c-3.2,3.2-4.7,7-4.7,11.7v4.7l-2.8,0.3v-22.5H1356.4z    M1409.5,1084.7v20.3h-22.2v-2.8h3.6c4.8,0,8.9-1.7,12.4-5.1c3.4-3.4,5.2-7.5,5.4-12.4H1409.5z M1426.7,911.2V1105h-18.1V911.2   H1426.7z M1425.9,1084.7h0.8c0.2,4.8,2,8.9,5.4,12.4c3.4,3.4,7.5,5.1,12.4,5.1h3.6v2.8h-22.2V1084.7z M1498.2,905.1v8.1l-33.9-3.1   c4.1,0,8.4-0.3,12.9-0.8c4.5-0.6,8.8-1.2,12.6-1.9C1493.7,906.6,1496.5,905.8,1498.2,905.1z M1498.2,917.6v22.5l-2.8-0.3v-4.7   c0-4.6-1.6-8.5-4.9-11.7c-3.2-3.1-7.1-4.8-11.5-5v-0.8H1498.2z" id="svg_21" fill="#ffffff"/>
	<path d="M1525.4,1084.7c-1.3,3.7-1.5,6.9-0.6,9.5c0.9,2.6,2.5,4.6,4.6,6c2.1,1.4,4.3,2.1,6.5,2.1h2.5v2.8h-55.9v-2.8h2.5   c4.3,0,8.7-1.3,13.2-4c4.5-2.7,8.3-7.2,11.3-13.5H1525.4z M1585.2,906.5l2.5,19.5l-69.8,178.2h-16.7l71.2-169c2-4.6,3.8-8.6,5.1-12   c1.4-3.3,2.6-6.6,3.6-9.7c1-3.1,1.5-5.5,1.5-7H1585.2z M1624.4,1029.1v8.3h-87v-8.3H1624.4z M1585.2,906.5l82.3,196.8h-23.6   l-64.2-170.4L1585.2,906.5z M1636.9,1084.7h22.8c2.8,6.3,6.5,10.8,11.1,13.5c4.6,2.7,9.1,4,13.3,4h2.2v2.8h-62.5v-2.8h2.5   c3.5,0,6.7-1.5,9.5-4.6C1638.6,1094.5,1638.9,1090.2,1636.9,1084.7z" id="svg_22" fill="#ffffff"/>
	<path d="M1794.5,930.7h-0.8c0-4.8-1.8-8.9-5.3-12.4c-3.5-3.4-7.7-5.1-12.5-5.1h-3.3l-0.3-2.8h22.2V930.7z M1794.5,1084.7v20.3   h-22.2v-2.8h3.6c4.8,0,8.9-1.7,12.4-5.1c3.4-3.4,5.2-7.5,5.4-12.4H1794.5z M1811.7,910.4V1105h-18.1V910.4H1811.7z M1886.8,910.4   v8.6h-75.9v-8.6H1886.8z M1874.9,1004.9v8.3h-63.9v-8.3H1874.9z M1886.8,1096.3v8.6h-75.9v-8.6H1886.8z M1903.8,1059.9l-16.1,45   h-46.1l10-8.6c9.8,0,17.8-1.5,24-4.6c6.2-3.1,11.3-7.4,15.2-12.9c3.9-5.6,7.3-11.9,10.3-18.9H1903.8z M1886.8,905.4v8.1l-33.9-3.1   c4.1,0,8.4-0.3,12.9-0.8c4.5-0.6,8.8-1.2,12.6-1.9C1882.4,906.8,1885.1,906.1,1886.8,905.4z M1874.9,987.1v18.3h-16.1v-0.6   c3.7-0.2,6.9-1.6,9.5-4.3c2.6-2.7,3.9-5.9,3.9-9.6v-3.9H1874.9z M1874.9,1012.7v18.3h-2.8v-4.2c0-3.7-1.3-6.9-3.9-9.6   c-2.6-2.7-5.7-4-9.5-4v-0.6H1874.9z M1886.8,918.1v22.2h-2.8v-5c0-4.4-1.6-8.3-4.7-11.5c-3.2-3.2-7-5-11.7-5.1v-0.6H1886.8z" id="svg_23" fill="#ffffff"/>
	<path d="M1987.2,906.5c3,0,6.2,0.2,9.6,0.6c3.4,0.4,6.8,0.9,10,1.5c3.2,0.7,6.2,1.3,8.9,1.9c2.7,0.7,4.8,1.3,6.3,2.1v30.9h-2.5   c0-8.9-3.1-15.9-9.2-21c-6.1-5.1-13.5-7.6-22.2-7.6c-10.2,0-18.4,3.2-24.7,9.6c-6.3,6.4-9.5,13.9-9.5,22.4c0,3.5,0.8,7.6,2.4,12.4   c1.6,4.7,4.5,9.1,8.8,13.2l54.8,50.6c5.6,5.2,9.3,10.8,11.1,16.7c1.9,5.9,2.8,11.7,2.8,17.2c0,15.4-4.7,27.9-14,37.5   c-9.4,9.6-22,14.5-37.9,14.5c-4.4,0-9.7-0.5-15.7-1.4c-6-0.9-11.9-2.5-17.5-4.9c-5.7-2.3-10.3-5.3-14-9c-0.6-3-0.8-6.7-0.8-11.1   c0-4.4,0.4-9.1,1.1-14c0.7-4.9,1.8-9.4,3.1-13.5h2.5c-0.9,9.5,0.3,17.7,3.6,24.7c3.3,7,8.2,12.4,14.6,16c6.4,3.6,13.7,5.2,21.8,4.9   c10.2-0.6,18.9-4.1,26.3-10.7c7.3-6.6,11-15.4,11-26.5c0-5.4-0.9-10.2-2.8-14.6c-1.9-4.4-4.5-8.1-8.1-11.3l-53.4-49.5   c-5.6-5.2-9.5-10.9-11.7-17.1c-2.2-6.2-3.3-12-3.3-17.4c0-7.8,1.9-15.3,5.6-22.5c3.7-7.2,9.2-13.1,16.5-17.7   C1967.7,908.7,1976.6,906.5,1987.2,906.5z M2021.9,909.3v5.8h-21.1v-5.8H2021.9z" id="svg_24" fill="#ffffff"/>
	<path d="M2056.4,905.1c1.9,0.7,4.7,1.5,8.5,2.2c3.8,0.7,8,1.4,12.6,1.9c4.6,0.6,8.9,0.8,12.8,0.8l-33.9,3.1V905.1z M2217.3,910.1   v8.3h-161v-8.3H2217.3z M2075.6,917.6v0.8c-4.6,0.2-8.5,1.9-11.7,5c-3.2,3.2-4.7,7-4.7,11.7v4.7l-2.8,0.3v-22.5H2075.6z    M2128.7,1084.7v20.3h-22.2v-2.8h3.6c4.8,0,8.9-1.7,12.4-5.1c3.4-3.4,5.2-7.5,5.4-12.4H2128.7z M2145.9,911.2V1105h-18.1V911.2   H2145.9z M2145.1,1084.7h0.8c0.2,4.8,2,8.9,5.4,12.4c3.4,3.4,7.5,5.1,12.4,5.1h3.6v2.8h-22.2V1084.7z M2217.3,905.1v8.1l-33.9-3.1   c4.1,0,8.4-0.3,12.9-0.8c4.5-0.6,8.8-1.2,12.6-1.9C2212.9,906.6,2215.7,905.8,2217.3,905.1z M2217.3,917.6v22.5l-2.8-0.3v-4.7   c0-4.6-1.6-8.5-4.9-11.7c-3.2-3.1-7.1-4.8-11.5-5v-0.8H2217.3z" id="svg_25" fill="#ffffff"/>
</g></g></svg>